PathFileType	4	(X/Y/Z)	RBDS013\RBDS013runT45.trc
DataRate	CameraRate	NumFrames	NumMarkers	Units	OrigDataRate	OrigDataStartFrame	OrigNumFrames
150.000000	150.000000	4	33	mm	150.000000	562	4500
Frame#	Time	L.ASIS			L.Heel.Bottom			L.Heel.Lateral			L.Heel.Top			L.Iliac.Crest			L.MT1			L.MT5			L.PSIS			L.Shank.Bottom.Lateral			L.Shank.Bottom.Medial			L.Shank.Top.Lateral			L.Shank.Top.Medial			L.Thigh.Bottom.Lateral			L.Thigh.Bottom.Medial			L.Thigh.Top.Lateral			L.Thigh.Top.Medial			R.ASIS			R.ASY			R.Heel.Bottom			R.Heel.Lateral			R.Heel.Top			R.Iliac.Crest			R.MT1			R.MT5			R.PSIS			R.Shank.Bottom.Lateral			R.Shank.Bottom.Medial			R.Shank.Top.Lateral			R.Shank.Top.Medial			R.Thigh.Bottom.Lateral			R.Thigh.Bottom.Medial			R.Thigh.Top.Lateral			R.Thigh.Top.Medial			
		X1	Y1	Z1	X2	Y2	Z2	X3	Y3	Z3	X4	Y4	Z4	X5	Y5	Z5	X6	Y6	Z6	X7	Y7	Z7	X8	Y8	Z8	X9	Y9	Z9	X10	Y10	Z10	X11	Y11	Z11	X12	Y12	Z12	X13	Y13	Z13	X14	Y14	Z14	X15	Y15	Z15	X16	Y16	Z16	X17	Y17	Z17	X18	Y18	Z18	X19	Y19	Z19	X20	Y20	Z20	X21	Y21	Z21	X22	Y22	Z22	X23	Y23	Z23	X24	Y24	Z24	X25	Y25	Z25	X26	Y26	Z26	X27	Y27	Z27	X28	Y28	Z28	X29	Y29	Z29	X30	Y30	Z30	X31	Y31	Z31	X32	Y32	Z32	X33	Y33	Z33	

563	3.746666666666667	2391.268862258805	878.3033264055389	925.6582789402962	1905.602423779121	750.4512047792514	992.3926632175398	1905.230357037436	723.1923487489862	945.1455998666418	1932.320685763751	712.6646709467329	987.1172848493711	2354.607680443211	951.5428933571646	892.0045532358488	1774.499594876398	581.7334010549115	1000.784637901228	1784.059459753387	628.4851265083248	900.1400510392928	2226.108361735962	931.3774754636178	976.5166082028813	1961.456488991771	629.4270033044115	917.3452185478467	1982.410239522558	659.7657089217546	960.1576947623231	2034.189225788024	598.4919565070244	904.2004284272307	2055.287857121716	627.6025438561621	944.4744432981765	2263.961890288876	532.9904880322225	869.5212738980454	2198.408601042694	547.964007283746	897.3800944291762	2281.321950039891	641.7615352098425	859.4458905303394	2218.495469762315	655.9058448551178	884.5757954944042	2366.558450619861	890.6256825743774	1155.292258269767	2535.983809569675	82.570662108627	1077.52015855024	2351.730849211077	35.49091694232501	1054.487848153389	2373.659551199725	52.20772489053589	1096.964907668516	2362.649492657859	85.32125192443121	1057.951316573732	2309.374284948603	952.4104644876903	1188.891212503815	2561.242872697724	49.44537403291679	1030.908383392111	2526.653731631447	36.69098259988357	1135.655382526562	2209.65419263009	929.3369052883555	1078.544168711887	2425.632602984705	154.1905915968993	1121.522475418337	2387.81547318666	164.039985457145	1088.030340077083	2424.15612002955	236.2176389893964	1142.000527487689	2385.589986672944	242.6001070941558	1105.967548296297	2413.756966547634	583.0779092468019	1190.737059202857	2362.637320055461	554.376414775222	1146.657961600408	2349.740800327472	671.2422142202054	1201.8319480669	2301.745150824256	645.5951483575658	1159.385753558099	
564	3.753333333333333	2389.97563564793	872.4666394093521	926.946688576136	1927.721308268929	748.1214322395352	992.2229556069907	1927.070359476971	720.7439154548414	944.8607503238284	1954.006919986424	709.7916561650882	987.0299965687915	2355.637053239093	944.5682525451159	891.9806484035513	1793.837161852899	581.4554031908901	1000.583271962348	1804.468326370596	627.7198259613996	899.7065682602823	2224.720060918406	925.8827792149397	975.4765688401674	1981.760808358155	625.5640248118509	917.0287489593617	2003.847203154301	655.1828651240077	959.9133413156992	2053.523264043742	592.4198443395962	903.4305926224098	2075.751763075113	620.6316583234956	943.8983272702344	2275.662808233119	525.6568845605758	867.9734572588302	2209.401291636999	537.9020891177365	895.2786910430716	2288.81720190904	635.0468496699025	858.6492490212063	2225.1640590325	646.5368344726072	882.8937444099078	2364.901167431133	885.8798788090614	1156.000362125656	2507.722844556678	79.12930598888093	1073.805165440215	2322.261026558682	34.48209249537077	1053.610875899011	2344.719079501653	52.15081836639394	1095.437428712228	2334.229544983798	84.31522068585073	1055.470737067347	2308.323210746041	946.4094222468494	1189.327157710728	2532.447760677438	45.18598483088033	1028.436938146755	2497.605667614916	35.55531072560572	1133.891689413353	2207.864124211699	924.7837329510913	1077.447184279864	2404.152394474947	151.2051139887872	1118.637586253432	2365.528840210776	163.2261148086146	1086.620594351364	2407.79067510509	233.088822094751	1139.812449161591	2368.129087462687	241.7642758344262	1105.171061611376	2409.346882741151	578.1868599875254	1189.917036711391	2357.931832405451	550.0166366496256	1145.826131316917	2346.017764354665	666.8116519300077	1201.611482431486	2297.781239395337	641.7821018707755	1159.037006493709	
565	3.76	2388.252917547632	866.8866389418288	928.1462545680093	1948.533775356294	744.2641891696715	991.5375230629162	1947.769763416351	716.6196413055827	944.1915799931112	1974.708809928368	705.6100828802436	986.516955643675	2355.560883166397	938.0189073520844	891.9108886937021	1813.504416801023	578.428074402756	1000.575336897652	1824.624861589749	623.9586781939308	899.3737954006872	2223.060709259109	920.9474538622362	974.6011341438392	2002.054807086258	620.513892463573	916.5863943477675	2024.992148478335	649.5782898646631	959.5295247167912	2073.116204713398	585.7218491279037	902.6815182965544	2096.183524954074	613.2137357342888	943.3260222939069	2288.465797870004	519.3386444487323	866.5210866913557	2221.596722635471	528.5247732612203	893.2989903282863	2296.893807595289	629.1750942528739	857.9097240588893	2232.486513343611	637.6987093964349	881.2324984138963	2362.792104673709	881.3303367788029	1156.783313119321	2478.650860136129	76.96708321073199	1070.726678580613	2292.455130584817	33.95874953707352	1052.793682468708	2315.284477830888	52.54957294329216	1094.055209320831	2305.183004952658	83.78401905875938	1053.201518064836	2306.906707792491	940.5133189561843	1189.786309292761	2503.000437041177	42.56355125697355	1026.611794401767	2467.973608560561	35.44488116205102	1132.548119642057	2205.796298030401	920.815492316093	1076.33310260396	2381.41744509691	149.0221867797971	1115.910465789451	2342.251780589707	163.1474045227312	1085.205828980708	2389.994496918349	230.5027754404416	1137.633728284798	2349.528745768829	241.4431382952966	1104.212741356892	2403.546900916139	573.2431011994216	1188.960196828313	2351.853588008903	545.9205945520135	1144.676630700484	2341.338281412666	662.6175693787917	1201.245348284179	2292.825954662645	638.4707880887134	1158.451106054175	
566	3.766666666666667	2386.122535740455	861.7592279273139	929.1823344045185	1967.684027220272	739.0187523808701	990.2973231955223	1967.002382947011	710.9573184296927	943.121480924522	1994.082083659533	700.2914089059112	985.5637698246513	2354.212556024434	932.1185120055636	891.765633763873	1833.251440215101	572.7183587159155	1000.748067039123	1844.279540908404	617.2668659895514	899.1346669160869	2221.124512624956	916.710601828834	973.9007286763012	2022.068123932443	614.4711720890473	916.0186338827901	2045.528760258038	643.2033987286584	958.9999777386109	2092.768275881871	578.6858111383054	901.9871557188377	2116.338392578366	605.7005213127935	942.7796231917506	2302.324780897402	514.3530704335986	865.2231034637238	2234.987206471562	520.1555982139749	891.5171435905481	2305.515285124994	624.4050567240573	857.2566426635839	2240.476693413169	629.659451081204	879.6609224951243	2360.227481280388	877.1078994280148	1157.653897394358	2449.020888403011	75.8808027881646	1068.359531606295	2262.456760379204	33.90167056400478	1052.063911679641	2285.519233077942	53.308066400571	1092.87633786098	2275.702362119506	83.71378164792442	1051.256035710775	2305.026328309978	934.9256717683797	1190.233196221193	2473.104875560762	41.32487179488379	1025.430506746034	2437.960728382696	36.06820613790888	1131.617376022897	2203.469737558373	917.5358719458711	1075.217028922623	2357.490321443649	147.6025035829219	1113.477537234796	2318.072911669093	163.7228470566506	1083.879550432546	2370.747101142672	228.4442620329266	1135.584737366993	2329.798368371627	241.5703518810283	1103.171555944064	2396.331125021152	568.3631169973282	1187.876524938321	2344.339230796706	542.1834360515213	1143.293870770233	2335.693862646929	658.7674483573244	1200.725002003193	2286.855628203082	635.7513660110808	1157.660449140584	
